Coordinates
version=1
nRows=4
nColumns=63
inDegrees=yes

Units are S.I. units (second, meters, Newtons, ...)
If the header above contains a line with 'inDegrees', this indicates whether rotational values are in degrees (yes) or radians (no).

endheader
time	pelvis_tilt	pelvis_list	pelvis_rotation	pelvis_tx	pelvis_ty	pelvis_tz	hip_flexion_r	hip_adduction_r	hip_rotation_r	knee_angle_r	knee_angle_r_beta	ankle_angle_r	subtalar_angle_r	mtp_angle_r	hip_flexion_l	hip_adduction_l	hip_rotation_l	knee_angle_l	knee_angle_l_beta	ankle_angle_l	subtalar_angle_l	mtp_angle_l	L5_S1_Flex_Ext	L5_S1_Lat_Bending	L5_S1_axial_rotation	L4_L5_Flex_Ext	L4_L5_Lat_Bending	L4_L5_axial_rotation	L3_L4_Flex_Ext	L3_L4_Lat_Bending	L3_L4_axial_rotation	L2_L3_Flex_Ext	L2_L3_Lat_Bending	L2_L3_axial_rotation	L1_L2_Flex_Ext	L1_L2_Lat_Bending	L1_L2_axial_rotation	L1_T12_Flex_Ext	L1_T12_Lat_Bending	L1_T12_axial_rotation	Abs_r3	Abs_r2	Abs_r1	Abs_t1	Abs_t2	neck_flexion	neck_bending	neck_rotation	arm_flex_r	arm_add_r	arm_rot_r	elbow_flex_r	pro_sup_r	wrist_flex_r	wrist_dev_r	arm_flex_l	arm_add_l	arm_rot_l	elbow_flex_l	pro_sup_l	wrist_flex_l	wrist_dev_l
      0.00000000	     -0.96565541	     -6.74272113	     87.66316592	      0.00359631	      1.07629688	      0.44646241	     -2.00600641	     -0.43093018	      4.58480092	      0.50144677	      0.00875190	     12.57642641	     -3.42539685	      0.00000000	     -1.47652811	     -2.18299076	      9.21228890	      0.67690725	      0.01181426	     16.49326429	     -6.23775666	      0.00000000	     -0.04614724	     -0.09437814	      0.95112827	     -0.08570004	     -0.12552293	      1.01057379	     -0.07581530	     -0.22947101	      1.01057379	     -0.05274168	     -0.22947101	      0.83223724	     -0.04285233	     -0.19245590	      0.77279172	     -0.02636853	     -0.14619174	      0.71334621	     -0.32962512	     -1.06762439	      5.28989012	      0.00000000	      0.00000000	     24.18779042	      6.81369451	      5.29740863	     10.22830943	    -16.07879167	     62.33358260	     58.39859912	     88.80541544	      5.95518733	     12.58125911	     14.57463265	    -12.10565275	     55.10822271	     60.00458114	     71.02764843	     16.50352402	     19.22889444
      0.01666667	     -1.08362165	     -7.11771217	     88.42705048	      0.00135164	      1.07630139	      0.45039415	     -1.53506526	     -0.67651312	      5.23815396	      0.40328859	      0.00703871	     13.51081846	     -3.19786201	      0.00000000	     -0.78299245	     -2.01743575	     11.28486811	      0.62221703	      0.01085974	     16.58813168	     -7.08872534	      0.00000000	     -0.03720896	     -0.10821787	      0.91854102	     -0.06910076	     -0.14392977	      0.97594983	     -0.06113060	     -0.26312093	      0.97594983	     -0.04252612	     -0.26312093	      0.80372339	     -0.03455224	     -0.22067788	      0.74631458	     -0.02126120	     -0.16762948	      0.68890576	     -0.26577987	     -1.22418219	      5.10864957	      0.00000000	      0.00000000	     24.49925925	      6.66718788	      4.15438631	      8.25780989	    -15.22206795	     56.91739185	     57.67674694	     88.74396641	      7.58905702	     12.03370729	     13.96455418	    -10.69367710	     52.31478029	     58.89630205	     72.08823523	     16.96370626	     20.98372384
      0.03333333	     -1.13452389	     -7.47825783	     89.08251002	     -0.00060143	      1.07629447	      0.45366811	     -1.03761293	     -0.85040327	      5.32308862	      0.43806676	      0.00764571	     14.50161106	     -2.54975103	      0.00000000	     -0.07116284	     -1.90306625	     12.68056877	      0.74908490	      0.01307400	     16.69765637	     -7.68719932	      0.00000000	     -0.02294201	     -0.10674121	      0.86872034	     -0.04260561	     -0.14196580	      0.92301536	     -0.03769143	     -0.25953057	      0.92301536	     -0.02622042	     -0.25953057	      0.76013030	     -0.02130395	     -0.21766667	      0.70583528	     -0.01310907	     -0.16534213	      0.65154025	     -0.16387249	     -1.20747786	      4.83156191	      0.00000000	      0.00000000	     24.61181097	      6.51709267	      3.71215049	      6.81857968	    -14.44295771	     52.70571445	     57.24912545	     88.30367074	      8.69536798	     12.72327721	     13.73675403	     -9.70707668	     50.74579550	     58.09443747	     72.45475044	     16.87046510	     21.79941935
      0.05000000	     -1.15617581	     -7.77377081	     89.56803322	     -0.00214747	      1.07636657	      0.45634760	     -0.61798284	     -0.98461793	      5.22408363	      0.47073870	      0.00821594	     15.26850165	     -1.90395940	      0.00000000	      0.52019546	     -1.81619495	     13.22636982	      0.87101288	      0.01520204	     16.83534370	     -7.69037575	      0.00000000	     -0.01458210	     -0.10087010	      0.82193717	     -0.02708042	     -0.13415723	      0.87330825	     -0.02395694	     -0.24525556	      0.87330825	     -0.01666589	     -0.24525556	      0.71919503	     -0.01354094	     -0.20569431	      0.66782395	     -0.00833221	     -0.15624779	      0.61645288	     -0.10415851	     -1.14106275	      4.57136798	      0.00000000	      0.00000000	     24.77944515	      6.34598149	      3.48430330	      5.88826865	    -13.82765335	     49.79107377	     56.94040440	     87.89148081	      8.90598282	     13.31304055	     13.72091331	     -9.04893311	     49.91226312	     57.61366654	     72.44550552	     16.27700979	     22.42290674
